#!OML:ASF F:\VICON\USERDATA\INSTALL\rory3\rory3.ASF
:FULLY-SPECIFIED
:DEGREES
2045
root 2.51589 17.6513 3.25225 3.53816 -77.4026 -5.40311
lowerback -0.341111 -1.56446 -1.91107
upperback -0.454998 -2.122 3.97296
thorax -0.055972 -1.07406 5.16365
lowerneck -17.9428 2.55436 -7.26228
upperneck 27.391 1.94592 12.0195
head 11.6675 1.52926 6.05447
rclavicle 2.97183e-014 6.36111e-015
rhumerus 19.5698 -69.1063 -22.3329
rradius 73.7867
rwrist -14.5364
rhand -39.0752 -6.06857
rfingers 7.12502
rthumb -12.0761 -35.7001
lclavicle 2.97183e-014 6.36111e-015
lhumerus 33.6221 60.4855 41.4816
lradius 74.6568
lwrist 27.9269
lhand -18.6455 24.7782
lfingers 7.12502
lthumb 7.64735 54.6199
rfemur -5.18224 -2.95001 23.0274
rtibia 31.6296
rfoot -23.2058 -6.14508
rtoes 12.099
lfemur -2.24434 6.77812 -6.40296
ltibia 45.2783
lfoot 0.76323 21.2023
ltoes -4.48096
2046
root 2.47822 17.6517 3.20935 3.33077 -78.0142 -5.23179
lowerback -0.20511 -1.50623 -1.80739
upperback -0.40178 -2.0445 3.91452
thorax -0.0913027 -1.03515 5.04734
lowerneck -17.782 2.66481 -7.23357
upperneck 27.3288 2.08704 12.0245
head 11.5929 1.59355 6.05856
rclavicle 3.40916e-014 -3.65764e-014
rhumerus 20.1371 -68.9743 -23.0527
rradius 73.31
rwrist -14.1999
rhand -39.3615 -5.39288
rfingers 7.12502
rthumb -12.3522 -35.008
lclavicle 3.40916e-014 -3.65764e-014
lhumerus 34.1631 60.0788 42.6681
lradius 74.1926
lwrist 28.2371
lhand -18.5223 24.9067
lfingers 7.12502
lthumb 7.76625 54.7441
rfemur -5.02262 -2.87701 23.0545
rtibia 31.531
rfoot -23.0456 -5.69201
rtoes 12.4491
lfemur -2.84051 6.82051 -6.39477
ltibia 46.2705
lfoot 0.734247 19.6259
ltoes -5.6527
2047
root 2.43845 17.6517 3.16336 3.20562 -78.5382 -5.26303
lowerback 0.0154075 -1.43131 -1.76888
upperback -0.270971 -1.94585 3.8531
thorax -0.0939256 -0.987194 4.96599
lowerneck -17.7278 2.77141 -6.91839
upperneck 27.3271 2.18417 11.8562
head 11.5789 1.64734 5.9483
rclavicle -1.11816e-014 -7.95139e-016
rhumerus 20.0215 -68.8194 -23.105
rradius 72.8658
rwrist -14.0122
rhand -39.4034 -5.12823
rfingers 7.12502
rthumb -12.3926 -34.7409
lclavicle -1.11816e-014 -7.95139e-016
lhumerus 35.1345 59.6394 44.2808
lradius 73.6511
lwrist 28.7754
lhand -18.335 24.8305
lfingers 7.12502
lthumb 7.94701 54.6611
rfemur -4.76481 -2.81818 23.1706
rtibia 31.4933
rfoot -22.9278 -5.44574
rtoes 12.705
lfemur -3.32254 6.62 -6.33337
ltibia 47.137
lfoot 0.343574 17.6421
ltoes -6.87782
2048
root 2.39792 17.6529 3.11707 2.31526 -79.044 -4.60272
lowerback 0.353808 -1.36665 -1.90407
upperback -0.150121 -1.86034 3.7697
thorax -0.166563 -0.943777 4.96363
lowerneck -17.6435 2.87794 -6.58605
upperneck 27.3866 2.28032 11.6457
head 11.584 1.69492 5.82176
rclavicle 4.01545e-014 -6.36111e-015
rhumerus 19.236 -68.4139 -22.603
rradius 72.5017
rwrist -14.0065
rhand -39.5555 -4.92305
rfingers 7.12502
rthumb -12.5393 -34.5268
lclavicle 4.01545e-014 -6.36111e-015
lhumerus 36.0622 59.1718 45.8926
lradius 73.0643
lwrist 29.341
lhand -17.8092 25.0186
lfingers 7.12502
lthumb 8.45445 54.8294
rfemur -4.43143 -2.97303 23.1072
rtibia 31.5105
rfoot -22.8208 -5.09242
rtoes 12.9257
lfemur -3.71279 6.17395 -6.46482
ltibia 47.8638
lfoot -0.43306 15.844
ltoes -7.08171
2049
root 2.36213 17.6532 3.07578 1.62637 -79.5763 -4.00128
lowerback 0.551578 -1.33187 -1.94489
upperback -0.060801 -1.81546 3.72497
thorax -0.190405 -0.921854 4.94411
lowerneck -17.5657 2.9959 -6.5918
upperneck 27.3691 2.44241 11.6633
head 11.5412 1.76823 5.84573
rclavicle -3.77691e-015 3.18055e-015
rhumerus 19.3611 -68.0193 -22.9797
rradius 72.2366
rwrist -13.8121
rhand -39.6036 -4.97812
rfingers 7.12502
rthumb -12.5856 -34.579
lclavicle -3.77691e-015 3.18055e-015
lhumerus 36.4897 58.7027 47.1074
lradius 72.5835
lwrist 29.9172
lhand -17.6852 25.1648
lfingers 7.12502
lthumb 8.57415 54.9707
rfemur -4.30945 -3.13655 23.0353
rtibia 31.5945
rfoot -22.6886 -4.68459
rtoes 12.8286
lfemur -4.29037 5.79604 -6.61216
ltibia 48.4712
lfoot -1.06347 14.0577
ltoes -7.95154
2050
root 2.33047 17.6523 3.04164 0.255397 -80.2475 -2.59343
lowerback 0.62295 -1.23154 -2.0146
upperback 0.000851897 -1.68162 3.64308
thorax -0.180972 -0.854998 4.89888
lowerneck -17.5446 3.10153 -6.65764
upperneck 27.3986 2.58992 11.7321
head 11.5272 1.83569 5.90322
rclavicle 2.15681e-014 -7.95139e-016
rhumerus 19.852 -67.693 -23.6572
rradius 72.0998
rwrist -13.4884
rhand -39.494 -5.37472
rfingers 7.12502
rthumb -12.48 -34.9821
lclavicle 2.15681e-014 -7.95139e-016
lhumerus 36.7535 58.1194 48.3562
lradius 72.2646
lwrist 30.3763
lhand -17.6781 25.2096
lfingers 7.12502
lthumb 8.58098 55.0152
rfemur -4.34169 -2.86921 22.8421
rtibia 31.7447
rfoot -22.7083 -4.32074
rtoes 13.3026
lfemur -4.93351 5.64348 -6.95393
ltibia 48.959
lfoot -1.68002 12.2537
ltoes -9.2196
2051
root 2.30299 17.6474 3.01014 -1.75531 -80.9403 -0.604994
lowerback 0.792465 -1.1084 -2.17203
upperback 0.0789301 -1.51856 3.55678
thorax -0.210402 -0.772883 4.90078
lowerneck -17.4297 3.20754 -6.63086
upperneck 27.2962 2.77024 11.6237
head 11.4458 1.90673 5.86809
rclavicle 2.96686e-014 -1.27222e-014
rhumerus 20.2352 -67.3334 -24.1982
rradius 71.9434
rwrist -13.1938
rhand -39.278 -5.48294
rfingers 7.12502
rthumb -12.2717 -35.1029
lclavicle 2.96686e-014 -1.27222e-014
lhumerus 37.1084 57.5259 49.805
lradius 71.9263
lwrist 30.772
lhand -17.6133 25.4313
lfingers 7.12502
lthumb 8.64354 55.2344
rfemur -4.33923 -2.39419 22.5982
rtibia 31.9387
rfoot -22.8404 -3.98734
rtoes 14.1747
lfemur -5.50551 5.51381 -7.37817
ltibia 49.3481
lfoot -2.39339 10.6403
ltoes -9.93958
2052
root 2.27476 17.6391 2.97997 -3.75678 -81.5905 1.40836
lowerback 0.88687 -1.05324 -2.28784
upperback 0.175843 -1.44677 3.47667
thorax -0.170229 -0.738516 4.8835
lowerneck -17.3903 3.37812 -6.51612
upperneck 27.2755 3.03693 11.4357
head 11.4057 2.01647 5.80675
rclavicle -2.08724e-015 2.38542e-014
rhumerus 20.9375 -66.8417 -25.1325
rradius 71.6765
rwrist -12.6901
rhand -39.158 -5.24516
rfingers 7.12502
rthumb -12.156 -34.872
lclavicle -2.08724e-015 2.38542e-014
lhumerus 37.3841 57.0312 50.9939
lradius 71.3558
lwrist 31.2596
lhand -17.6992 25.5727
lfingers 7.12502
lthumb 8.56063 55.3791
rfemur -4.39382 -2.03193 22.3639
rtibia 32.1559
rfoot -22.9424 -3.56855
rtoes 14.0531
lfemur -6.14185 5.39216 -7.76898
ltibia 49.6463
lfoot -3.07501 9.10419
ltoes -9.60881
2053
root 2.24351 17.636 2.95228 -6.34161 -82.2008 4.03498
lowerback 0.9798 -1.01023 -2.42259
upperback 0.215024 -1.38965 3.34991
thorax -0.187843 -0.708936 4.82906
lowerneck -17.3997 3.60205 -6.1285
upperneck 27.5943 3.26818 11.2227
head 11.5185 2.12701 5.70837
rclavicle 3.90115e-015 4.6118e-014
rhumerus 21.3277 -66.188 -25.8233
rradius 71.3553
rwrist -12.1147
rhand -39.3197 -4.96693
rfingers 7.12502
rthumb -12.3119 -34.5845
lclavicle 3.90115e-015 4.6118e-014
lhumerus 37.4952 56.4389 51.9576
lradius 70.6765
lwrist 31.7814
lhand -17.4686 25.6014
lfingers 7.12502
lthumb 8.78318 55.3987
rfemur -4.45962 -1.66668 22.0923
rtibia 32.3758
rfoot -23.1171 -3.36817
rtoes 13.2662
lfemur -6.79949 5.309 -8.24929
ltibia 49.8656
lfoot -3.5855 7.70834
ltoes -9.77644
2054
root 2.21105 17.6348 2.92251 -9.24804 -82.7854 6.96455
lowerback 1.06399 -1.01285 -2.63658
upperback 0.249117 -1.39467 3.2401
thorax -0.19711 -0.710749 4.83769
lowerneck -17.2713 3.86749 -5.6611
upperneck 27.8054 3.53774 11.0005
head 11.5626 2.26116 5.58472
rclavicle -1.34677e-014 -1.11319e-014
rhumerus 21.6609 -65.3352 -26.5228
rradius 71.0748
rwrist -11.5091
rhand -39.6478 -4.77598
rfingers 7.12502
rthumb -12.6282 -34.3743
lclavicle -1.34677e-014 -1.11319e-014
lhumerus 37.375 55.9619 52.7458
lradius 70.1078
lwrist 32.5561
lhand -16.7876 25.9041
lfingers 7.12502
lthumb 9.44026 55.6727
rfemur -4.48293 -1.23678 21.8724
rtibia 32.579
rfoot -23.3268 -3.21016
rtoes 13.0951
lfemur -7.44277 5.21703 -8.73845
ltibia 50.0212
lfoot -3.94153 6.72711
ltoes -11.3378
2055
root 2.18387 17.6271 2.8921 -10.8982 -83.3509 8.56672
lowerback 1.22587 -0.985835 -2.60552
upperback 0.327869 -1.36107 3.18658
thorax -0.212489 -0.694786 4.76638
lowerneck -17.1825 3.98803 -5.59943
upperneck 27.7626 3.66002 11.0884
head 11.5138 2.33225 5.6157
rclavicle 1.77291e-014 7.95139e-016
rhumerus 21.8941 -64.5493 -27.0731
rradius 70.8391
rwrist -10.8765
rhand -39.6515 -4.63967
rfingers 7.12502
rthumb -12.6318 -34.2377
lclavicle 1.77291e-014 7.95139e-016
lhumerus 37.3514 55.4464 53.6288
lradius 69.439
lwrist 33.4221
lhand -16.2505 26.1582
lfingers 7.12502
lthumb 9.95845 55.9027
rfemur -4.46145 -0.897059 21.8727
rtibia 32.7561
rfoot -23.4446 -2.91463
rtoes 13.5106
lfemur -8.06063 5.09882 -8.95975
ltibia 50.092
lfoot -4.26766 5.8489
ltoes -12.5316
2056
root 2.16016 17.6209 2.86524 -12.3788 -83.9186 10.056
lowerback 1.3993 -0.852512 -2.47664
upperback 0.406701 -1.18485 3.16223
thorax -0.249918 -0.607159 4.6683
lowerneck -17.1878 3.99436 -5.70127
upperneck 27.6712 3.67709 11.1928
head 11.4718 2.34452 5.6691
rclavicle 1.92573e-014 -2.38542e-014
rhumerus 21.6983 -63.8883 -27.0213
rradius 70.5555
rwrist -10.1435
rhand -39.5162 -4.59573
rfingers 7.12502
rthumb -12.5014 -34.2018
lclavicle 1.92573e-014 -2.38542e-014
lhumerus 37.4141 54.5726 54.8536
lradius 68.6461
lwrist 33.7662
lhand -16.1904 25.8237
lfingers 7.12502
lthumb 10.0165 55.5653
rfemur -4.511 -0.616319 21.9068
rtibia 32.9077
rfoot -23.489 -2.64041
rtoes 13.6135
lfemur -8.75306 4.98016 -9.13251
ltibia 50.0797
lfoot -4.56505 5.19076
ltoes -10.3154
2057
root 2.12932 17.623 2.84374 -14.8473 -84.4243 12.6284
lowerback 1.4097 -0.877046 -2.43035
upperback 0.474988 -1.21855 3.14943
thorax -0.1835 -0.626681 4.62844
lowerneck -17.1287 4.20841 -5.67742
upperneck 27.6498 4.00119 11.1141
head 11.4185 2.48421 5.67096
rclavicle 1.01007e-014 -2.14687e-014
rhumerus 21.9281 -62.873 -27.4851
rradius 70.2676
rwrist -9.42582
rhand -39.3811 -4.48634
rfingers 7.12502
rthumb -12.3711 -34.1003
lclavicle 1.01007e-014 -2.14687e-014
lhumerus 36.9188 53.9079 55.7547
lradius 67.987
lwrist 33.827
lhand -15.975 25.4012
lfingers 7.12502
lthumb 10.2243 55.1327
rfemur -4.60502 -0.420978 21.8344
rtibia 33.025
rfoot -23.4209 -2.47476
rtoes 13.7699
lfemur -9.47711 4.7599 -9.45713
ltibia 49.9694
lfoot -4.83312 4.94967
ltoes -13.3634
2058
root 2.09662 17.6245 2.82651 -16.7487 -84.9059 14.6479
lowerback 1.35169 -0.959217 -2.27253
upperback 0.563429 -1.32909 3.20031
thorax -0.051668 -0.686907 4.59068
lowerneck -17.1253 4.47057 -5.72587
upperneck 27.6784 4.42283 11.0177
head 11.3835 2.65928 5.69602
rclavicle 8.99811e-015 2.46493e-014
rhumerus 22.0374 -61.666 -27.8039
rradius 69.9563
rwrist -9.01427
rhand -39.2072 -3.98046
rfingers 7.12502
rthumb -12.2034 -33.6045
lclavicle 8.99811e-015 2.46493e-014
lhumerus 36.3805 53.4282 56.5095
lradius 67.2795
lwrist 34.1686
lhand -15.7695 25.4352
lfingers 7.12502
lthumb 10.4225 55.1569
rfemur -4.68223 -0.208504 21.8554
rtibia 33.0866
rfoot -23.3781 -2.32129
rtoes 14.4451
lfemur -10.1974 4.38173 -9.7351
ltibia 49.7921
lfoot -5.32224 4.7822
ltoes -15.1234
